PathFileType	4	(X/Y/Z)	\\147.46.242.158\로컬 디스크 (e)\MOCAP Data\Iguana Capture\iguana\Project 2\Capture day 5 after broken\Session 1\Take01 ddong.trc
DataRate	CameraRate	NumFrames	NumMarkers	Units	OrigDataRate	OrigDataStartFrame	OrigNumFrames
120.0	120.0	7	23	mm	120.0	200	23111
Frame#	Time	ana:head1			ana:head2			ana:bone1			ana:bone2			ana:bone3			ana:tail1			ana:tail2			ana:tail3			ana:tail4			ana:Rforefoot1			ana:Rforefoot2			ana:Rforefoot3			ana:Lforefoot1			ana:Lforefoot2			ana:Lforefoot3			ana:RhindLeg1			ana:RhindLeg2			ana:RhindLeg3			ana:RhindLeg4			ana:LhindLeg1			ana:LhindLeg2			ana:LhindLeg3			ana:LhindLeg4			
		X1	Y1	Z1	X2	Y2	Z2	X3	Y3	Z3	X4	Y4	Z4	X5	Y5	Z5	X6	Y6	Z6	X7	Y7	Z7	X8	Y8	Z8	X9	Y9	Z9	X10	Y10	Z10	X11	Y11	Z11	X12	Y12	Z12	X13	Y13	Z13	X14	Y14	Z14	X15	Y15	Z15	X16	Y16	Z16	X17	Y17	Z17	X18	Y18	Z18	X19	Y19	Z19	X20	Y20	Z20	X21	Y21	Z21	X22	Y22	Z22	X23	Y23	Z23	

7426	61.875	417.81113	162.28165	49.14565	427.57605	156.58055	50.88477	446.64676	147.52516	44.91727	473.65634	138.07178	44.09105	505.59753	122.22161	36.87722	531.76892	103.80914	28.93575	560.15814	88.03388	18.06464	593.74841	76.86756	6.74895	633.28723	67.00071	3.16212	445.64908	159.13753	27.44146	450.33063	169.42958	16.62615	438.62668	169.45245	2.83366	443.71231	133.07301	29.09439	450.95914	122.39687	24.91119	460.48090	117.94845	10.38412	512.85345	128.23265	29.38702	525.82983	137.79265	23.84533	541.42035	129.15700	16.16340	542.21503	137.60521	7.59078	497.85083	113.26492	28.61483	483.72995	105.05512	21.57294	488.35233	97.71469	4.74804	476.09055	99.57882	1.90424	
7427	61.883	416.56570	162.90323	49.25826	426.35446	157.20749	51.00867	445.37732	147.99425	45.11118	472.26587	138.14792	44.27680	504.43835	122.50875	37.07474	530.71179	104.43874	29.11470	559.10272	88.70280	18.22052	592.66028	77.40244	6.84709	632.12158	67.31535	3.15997	444.81848	159.59480	27.60566	450.10300	169.44109	16.63327	438.55374	169.42206	2.85926	441.95782	133.81137	29.58835	448.82870	122.87406	26.10367	457.95850	117.92258	11.24600	511.46536	128.47514	29.72490	524.50305	137.89807	24.30769	540.48059	129.63730	16.96716	542.17047	138.20398	8.67315	496.79117	113.38691	28.74438	483.04343	104.78644	21.39906	488.21808	97.72308	4.79054	476.04361	99.66481	1.86859	
7428	61.892	415.32645	163.53906	49.33699	425.13580	157.85110	51.09065	444.09912	148.46973	45.26168	470.86157	138.21855	44.43286	503.28802	122.75829	37.31050	529.63348	105.06039	29.30923	558.03821	89.37137	18.39110	591.56140	77.94890	6.95698	630.95453	67.64067	3.16253	444.00378	160.04405	27.72598	449.86807	169.43004	16.61883	438.48486	169.34439	2.83492	440.14825	134.62335	30.08444	446.55594	123.44199	27.39648	454.97668	117.87588	12.16384	510.05527	128.69289	30.07031	523.15808	137.98474	24.78586	539.50024	130.20436	17.81305	542.07819	138.80515	9.81618	495.71884	113.48778	28.87599	482.35681	104.52287	21.21633	488.11652	97.75965	4.82728	476.01669	99.73820	1.80826	
7429	61.900	414.09717	164.19241	49.37777	423.92212	158.51379	51.12566	442.81183	148.95241	45.36191	469.44119	138.28555	44.55239	502.13632	122.96967	37.57550	528.53314	105.67575	29.51625	556.96356	90.03607	18.57463	590.44873	78.50209	7.07577	629.78406	67.97618	3.17039	443.20496	160.48784	27.79784	449.63007	169.42122	16.59687	438.43298	169.23169	2.76966	438.30280	135.50594	30.57092	444.18228	124.10789	28.75719	451.56680	117.84841	13.14194	508.61975	128.88980	30.41092	521.79645	138.07021	25.27658	538.46771	130.85316	18.70072	541.91876	139.37366	10.97081	494.63184	113.57246	28.99887	481.67734	104.26227	21.01783	488.05865	97.79597	4.85375	476.01352	99.78379	1.73521	
7430	61.908	412.88269	164.86406	49.37958	422.71729	159.19554	51.11275	441.51797	149.44234	45.40900	468.00467	138.35048	44.63029	500.97235	123.14500	37.85429	527.41241	106.28646	29.72926	555.87915	90.69398	18.76628	589.32184	79.05703	7.19904	628.60901	68.32087	3.18365	442.42206	160.92873	27.82251	449.39130	169.43489	16.58410	438.40616	169.10072	2.67911	436.44446	136.45064	31.03778	441.75580	124.86826	30.15030	447.78677	117.88947	14.18836	507.15680	129.07269	30.73310	520.41608	138.18018	25.77792	537.36981	131.57010	19.62520	541.67480	139.87839	12.08551	493.53088	113.64614	29.10239	481.01358	104.00272	20.79929	488.04669	97.80781	4.86934	476.03247	99.79333	1.66235	
7431	61.917	411.68872	165.55225	49.34409	421.52670	159.89415	51.05513	440.22290	149.93883	45.40429	466.55508	138.41495	44.66376	499.78580	123.28939	38.12671	526.27533	106.89404	29.93880	554.78699	91.34306	18.95840	588.18286	79.60903	7.32110	627.42908	68.67310	3.20179	441.65530	161.36913	27.80623	449.15216	169.48456	16.59663	438.40637	168.97064	2.58208	434.59830	137.44438	31.47708	439.32550	125.70972	31.53898	443.71597	118.05486	15.31257	505.66641	129.25111	31.02349	519.01056	138.34666	26.28995	536.19263	132.33438	20.57662	541.32983	140.29747	13.11250	492.41925	113.71414	29.17713	480.37466	103.74329	20.55948	488.07507	97.77938	4.87624	476.06750	99.76604	1.60094	
7432	61.925	410.52170	166.25311	49.27512	420.35724	160.60562	50.95961	438.93484	150.44093	45.35301	465.09866	138.48106	44.65263	498.56818	123.41093	38.37027	525.12854	107.49999	30.13333	553.69006	91.98222	19.14114	587.03613	80.15400	7.43550	626.24500	69.03056	3.22374	440.90460	161.81100	27.75881	448.91095	169.57556	16.64705	438.42972	168.86063	2.49711	432.78894	138.47121	31.88267	436.93546	126.61172	32.88643	439.44867	118.40343	16.52179	504.15125	129.43703	31.27042	517.56848	138.60474	26.81503	534.92206	133.12119	21.54055	540.86719	140.62303	14.01386	491.30270	113.78188	29.21579	479.76877	103.48454	20.30027	488.13193	97.70573	4.87817	476.11029	99.70796	1.55863	
